# This file uses centimeters as units for non-parametric coordinates.

mtllib mesita.mtl
g default
v 2.339145 0.057267 2.284523
v 2.333067 -0.007382 2.272424
v 2.323599 -0.007382 2.262822
v 2.311670 -0.007382 2.256658
v 2.298446 -0.007382 2.254534
v 2.285221 -0.007382 2.256658
v 2.273292 -0.007382 2.262822
v 2.263824 -0.007382 2.272424
v 2.257746 0.057267 2.284523
v 2.255651 0.057267 2.297934
v 2.257746 0.057267 2.311345
v 2.263824 -0.007382 2.323444
v 2.273292 -0.007382 2.333046
v 2.285221 -0.007382 2.339210
v 2.298446 -0.007382 2.341334
v 2.311670 -0.007382 2.339210
v 2.323599 -0.007382 2.333046
v 2.333067 -0.007382 2.323444
v 2.339145 0.057267 2.311345
v 2.341240 0.057267 2.297934
v 2.339145 0.847142 2.284523
v 2.333067 0.782492 2.272424
v 2.323599 0.782492 2.262822
v 2.311670 0.782492 2.256658
v 2.298446 0.782492 2.254534
v 2.285221 0.782492 2.256658
v 2.273292 0.782492 2.262822
v 2.263824 0.782492 2.272424
v 2.257746 0.847142 2.284523
v 2.255651 0.847142 2.297934
v 2.257746 0.847142 2.311345
v 2.263824 0.782492 2.323444
v 2.273292 0.782492 2.333046
v 2.285221 0.782492 2.339210
v 2.298446 0.782492 2.341334
v 2.311670 0.782492 2.339210
v 2.323599 0.782492 2.333046
v 2.333067 0.782492 2.323444
v 2.339145 0.847142 2.311345
v 2.341240 0.847142 2.297934
v 2.298446 0.057267 2.297934
v 2.298446 0.847142 2.297934
v 2.573922 -0.036841 2.208158
v 2.534859 -0.036841 2.132040
v 2.474015 -0.036841 2.071632
v 2.397348 -0.036841 2.032848
v 2.312362 -0.036841 2.019483
v 2.227375 -0.036841 2.032848
v 2.150708 -0.036841 2.071632
v 2.089865 -0.036841 2.132040
v 2.050801 -0.036841 2.208159
v 2.037340 -0.036841 2.292537
v 2.050801 -0.036841 2.376915
v 2.089865 -0.036841 2.453033
v 2.150708 -0.036841 2.513441
v 2.227375 -0.036841 2.552225
v 2.312362 -0.036841 2.565590
v 2.397348 -0.036841 2.552225
v 2.474015 -0.036841 2.513441
v 2.534858 -0.036841 2.453033
v 2.573922 -0.036841 2.376915
v 2.587383 -0.036841 2.292537
v 2.312362 0.233104 2.292537
v 1.392575 0.767079 3.329852
v 3.141055 0.767079 3.329852
v 1.392575 0.861210 3.329852
v 3.141055 0.861210 3.329852
v 1.392575 0.861210 1.373273
v 3.141055 0.861210 1.373273
v 1.392575 0.767079 1.373273
v 3.141055 0.767079 1.373273
vt 0.375000 0.312500
vt 0.387500 0.312500
vt 0.387500 0.688440
vt 0.375000 0.688440
vt 0.400000 0.312500
vt 0.400000 0.688440
vt 0.412500 0.312500
vt 0.412500 0.688440
vt 0.425000 0.312500
vt 0.425000 0.688440
vt 0.437500 0.312500
vt 0.437500 0.688440
vt 0.450000 0.312500
vt 0.450000 0.688440
vt 0.462500 0.312500
vt 0.462500 0.688440
vt 0.475000 0.312500
vt 0.475000 0.688440
vt 0.487500 0.312500
vt 0.487500 0.688440
vt 0.500000 0.312500
vt 0.500000 0.688440
vt 0.512500 0.312500
vt 0.512500 0.688440
vt 0.525000 0.312500
vt 0.525000 0.688440
vt 0.537500 0.312500
vt 0.537500 0.688440
vt 0.550000 0.312500
vt 0.550000 0.688440
vt 0.562500 0.312500
vt 0.562500 0.688440
vt 0.575000 0.312500
vt 0.575000 0.688440
vt 0.587500 0.312500
vt 0.587500 0.688440
vt 0.600000 0.312500
vt 0.600000 0.688440
vt 0.612500 0.312500
vt 0.612500 0.688440
vt 0.625000 0.312500
vt 0.625000 0.688440
vt 0.626409 0.064408
vt 0.648603 0.107966
vt 0.500000 0.150000
vt 0.591842 0.029841
vt 0.548284 0.007647
vt 0.500000 -0.000000
vt 0.451716 0.007647
vt 0.408159 0.029841
vt 0.373591 0.064409
vt 0.351397 0.107966
vt 0.343750 0.156250
vt 0.351397 0.204534
vt 0.373591 0.248091
vt 0.408159 0.282659
vt 0.451716 0.304853
vt 0.500000 0.312500
vt 0.548284 0.304853
vt 0.591841 0.282659
vt 0.626409 0.248091
vt 0.648603 0.204534
vt 0.656250 0.156250
vt 0.648603 0.892034
vt 0.626409 0.935591
vt 0.500000 0.837500
vt 0.591841 0.970159
vt 0.548284 0.992353
vt 0.500000 1.000000
vt 0.451716 0.992353
vt 0.408159 0.970159
vt 0.373591 0.935591
vt 0.351397 0.892034
vt 0.343750 0.843750
vt 0.351397 0.795466
vt 0.373591 0.751909
vt 0.408159 0.717341
vt 0.451716 0.695147
vt 0.500000 0.687500
vt 0.548284 0.695147
vt 0.591842 0.717341
vt 0.626409 0.751908
vt 0.648603 0.795466
vt 0.656250 0.843750
vt 0.737764 0.172746
vt 0.750000 0.250000
vt 0.737764 0.327254
vt 0.702254 0.396946
vt 0.646946 0.452254
vt 0.577254 0.487764
vt 0.500000 0.500000
vt 0.422746 0.487764
vt 0.353054 0.452254
vt 0.297746 0.396946
vt 0.262236 0.327254
vt 0.250000 0.250000
vt 0.262236 0.172746
vt 0.297746 0.103054
vt 0.353054 0.047746
vt 0.422746 0.012236
vt 0.500000 -0.000000
vt 0.577254 0.012236
vt 0.646946 0.047746
vt 0.702254 0.103054
vt 0.250000 0.500000
vt 0.275000 0.500000
vt 0.500000 1.000000
vt 0.300000 0.500000
vt 0.325000 0.500000
vt 0.350000 0.500000
vt 0.375000 0.500000
vt 0.400000 0.500000
vt 0.425000 0.500000
vt 0.450000 0.500000
vt 0.475000 0.500000
vt 0.500000 0.500000
vt 0.525000 0.500000
vt 0.550000 0.500000
vt 0.575000 0.500000
vt 0.600000 0.500000
vt 0.625000 0.500000
vt 0.650000 0.500000
vt 0.675000 0.500000
vt 0.700000 0.500000
vt 0.725000 0.500000
vt 0.750000 0.500000
vt 0.375000 0.000000
vt 0.625000 0.000000
vt 0.625000 0.250000
vt 0.375000 0.250000
vt 0.625000 0.500000
vt 0.375000 0.500000
vt 0.625000 0.750000
vt 0.375000 0.750000
vt 0.625000 1.000000
vt 0.375000 1.000000
vt 0.875000 0.000000
vt 0.875000 0.250000
vt 0.125000 0.000000
vt 0.125000 0.250000
vn 0.952318 0.000000 -0.305106
vn 0.812923 0.000000 -0.582371
vn 0.812923 0.000000 -0.582371
vn 0.952318 0.000000 -0.305106
vn 0.812923 0.000000 -0.582371
vn 0.593193 0.000000 -0.805060
vn 0.593193 0.000000 -0.805060
vn 0.812923 0.000000 -0.582371
vn 0.593193 0.000000 -0.805060
vn 0.312965 0.000000 -0.949765
vn 0.312965 0.000000 -0.949765
vn 0.593193 0.000000 -0.805060
vn 0.312965 0.000000 -0.949765
vn 0.000000 0.000000 -1.000000
vn 0.000000 0.000000 -1.000000
vn 0.312965 0.000000 -0.949765
vn 0.000000 0.000000 -1.000000
vn -0.312965 0.000000 -0.949765
vn -0.312965 0.000000 -0.949765
vn 0.000000 0.000000 -1.000000
vn -0.312965 0.000000 -0.949765
vn -0.593193 0.000000 -0.805060
vn -0.593193 0.000000 -0.805060
vn -0.312965 0.000000 -0.949765
vn -0.593193 0.000000 -0.805060
vn -0.812923 0.000000 -0.582371
vn -0.812923 0.000000 -0.582371
vn -0.593193 0.000000 -0.805060
vn -0.812923 0.000000 -0.582371
vn -0.952318 0.000000 -0.305106
vn -0.952318 0.000000 -0.305106
vn -0.812923 0.000000 -0.582371
vn -0.952318 0.000000 -0.305106
vn -1.000000 0.000000 0.000000
vn -1.000000 0.000000 0.000000
vn -0.952318 0.000000 -0.305106
vn -1.000000 0.000000 0.000000
vn -0.952318 0.000000 0.305107
vn -0.952318 0.000000 0.305107
vn -1.000000 0.000000 0.000000
vn -0.952318 0.000000 0.305107
vn -0.812922 0.000000 0.582372
vn -0.812922 0.000000 0.582372
vn -0.952318 0.000000 0.305107
vn -0.812922 0.000000 0.582372
vn -0.593192 0.000000 0.805061
vn -0.593192 0.000000 0.805061
vn -0.812922 0.000000 0.582372
vn -0.593192 0.000000 0.805061
vn -0.312968 0.000000 0.949764
vn -0.312968 0.000000 0.949764
vn -0.593192 0.000000 0.805061
vn -0.312968 0.000000 0.949764
vn 0.000000 0.000000 1.000000
vn 0.000000 0.000000 1.000000
vn -0.312968 0.000000 0.949764
vn 0.000000 0.000000 1.000000
vn 0.312968 0.000000 0.949764
vn 0.312968 0.000000 0.949764
vn 0.000000 0.000000 1.000000
vn 0.312968 0.000000 0.949764
vn 0.593192 0.000000 0.805061
vn 0.593192 0.000000 0.805061
vn 0.312968 0.000000 0.949764
vn 0.593192 0.000000 0.805061
vn 0.812922 0.000000 0.582372
vn 0.812922 0.000000 0.582372
vn 0.593192 0.000000 0.805061
vn 0.812922 0.000000 0.582372
vn 0.952318 0.000000 0.305107
vn 0.952318 0.000000 0.305107
vn 0.812922 0.000000 0.582372
vn 0.952318 0.000000 0.305107
vn 1.000000 0.000000 0.000000
vn 1.000000 0.000000 0.000000
vn 0.952318 0.000000 0.305107
vn 1.000000 0.000000 0.000000
vn 0.952318 0.000000 -0.305106
vn 0.952318 0.000000 -0.305106
vn 1.000000 0.000000 0.000000
vn 0.000000 -1.000000 0.000000
vn 0.000000 -1.000000 0.000000
vn 0.000000 -1.000000 0.000000
vn 0.000000 -1.000000 0.000000
vn 0.000000 -1.000000 0.000000
vn 0.000000 -1.000000 0.000000
vn 0.000000 -1.000000 0.000000
vn 0.000000 -1.000000 0.000000
vn 0.000000 -1.000000 0.000000
vn 0.000000 -1.000000 0.000000
vn 0.000000 -1.000000 0.000000
vn 0.000000 -1.000000 0.000000
vn 0.000000 -1.000000 0.000000
vn 0.000000 -1.000000 0.000000
vn 0.000000 -1.000000 0.000000
vn 0.000000 -1.000000 0.000000
vn 0.000000 -1.000000 0.000000
vn 0.000000 -1.000000 0.000000
vn 0.000000 -1.000000 0.000000
vn 0.000000 -1.000000 0.000000
vn 0.000000 -1.000000 0.000000
vn 0.000000 -1.000000 0.000000
vn 0.000000 -1.000000 0.000000
vn 0.000000 -1.000000 0.000000
vn 0.000000 -1.000000 0.000000
vn 0.000000 -1.000000 0.000000
vn 0.000000 -1.000000 0.000000
vn 0.000000 -1.000000 0.000000
vn 0.000000 -1.000000 0.000000
vn 0.000000 -1.000000 0.000000
vn 0.000000 -1.000000 0.000000
vn 0.000000 -1.000000 0.000000
vn 0.000000 -1.000000 0.000000
vn 0.000000 -1.000000 0.000000
vn 0.000000 -1.000000 0.000000
vn 0.000000 -1.000000 0.000000
vn 0.000000 -1.000000 0.000000
vn 0.000000 -1.000000 0.000000
vn 0.000000 -1.000000 0.000000
vn 0.000000 -1.000000 0.000000
vn 0.000000 -1.000000 0.000000
vn 0.000000 -1.000000 0.000000
vn 0.000000 -1.000000 0.000000
vn 0.000000 -1.000000 0.000000
vn 0.000000 -1.000000 0.000000
vn 0.000000 -1.000000 0.000000
vn 0.000000 -1.000000 0.000000
vn 0.000000 -1.000000 0.000000
vn 0.000000 -1.000000 0.000000
vn 0.000000 -1.000000 0.000000
vn 0.000000 -1.000000 0.000000
vn 0.000000 -1.000000 0.000000
vn 0.000000 -1.000000 0.000000
vn 0.000000 -1.000000 0.000000
vn 0.000000 -1.000000 0.000000
vn 0.000000 -1.000000 0.000000
vn 0.000000 -1.000000 0.000000
vn 0.000000 -1.000000 0.000000
vn 0.000000 -1.000000 0.000000
vn 0.000000 -1.000000 0.000000
vn 0.000000 1.000000 0.000000
vn 0.000000 1.000000 0.000000
vn 0.000000 1.000000 0.000000
vn 0.000000 1.000000 0.000000
vn 0.000000 1.000000 0.000000
vn 0.000000 1.000000 0.000000
vn 0.000000 1.000000 0.000000
vn 0.000000 1.000000 0.000000
vn 0.000000 1.000000 0.000000
vn 0.000000 1.000000 0.000000
vn 0.000000 1.000000 0.000000
vn 0.000000 1.000000 0.000000
vn 0.000000 1.000000 0.000000
vn 0.000000 1.000000 -0.000002
vn 0.000000 1.000000 0.000000
vn 0.000000 1.000000 -0.000002
vn 0.000000 1.000000 -0.000002
vn 0.000000 1.000000 0.000000
vn 0.000000 1.000000 -0.000002
vn 0.000000 1.000000 0.000000
vn 0.000000 1.000000 0.000000
vn 0.000000 1.000000 0.000000
vn 0.000000 1.000000 0.000000
vn 0.000000 1.000000 0.000000
vn 0.000000 1.000000 0.000000
vn 0.000000 1.000000 0.000000
vn 0.000000 1.000000 0.000000
vn 0.000000 1.000000 0.000000
vn 0.000000 1.000000 0.000000
vn 0.000000 1.000000 0.000000
vn 0.000000 1.000000 0.000000
vn 0.000000 1.000000 0.000000
vn 0.000000 1.000000 0.000000
vn 0.000000 1.000000 0.000000
vn 0.000000 1.000000 0.000000
vn 0.000000 1.000000 0.000000
vn 0.000000 1.000000 0.000000
vn 0.000000 1.000000 0.000000
vn 0.000000 1.000000 0.000000
vn 0.000000 1.000000 0.000000
vn 0.000000 1.000000 0.000000
vn 0.000000 1.000000 0.000000
vn 0.000000 1.000000 0.000000
vn 0.000000 1.000000 0.000002
vn 0.000000 1.000000 0.000000
vn 0.000000 1.000000 0.000002
vn 0.000000 1.000000 0.000002
vn 0.000000 1.000000 0.000000
vn 0.000000 1.000000 0.000002
vn 0.000000 1.000000 0.000000
vn 0.000000 1.000000 0.000000
vn 0.000000 1.000000 0.000000
vn 0.000000 1.000000 0.000000
vn 0.000000 1.000000 0.000000
vn 0.000000 1.000000 0.000000
vn 0.000000 1.000000 0.000000
vn 0.000000 1.000000 0.000000
vn 0.000000 1.000000 0.000000
vn 0.000000 1.000000 0.000000
vn 0.000000 1.000000 0.000000
vn 0.000000 -1.000000 0.000000
vn 0.000000 -1.000000 0.000000
vn 0.000000 -1.000000 0.000000
vn 0.000000 -1.000000 0.000000
vn 0.000000 -1.000000 0.000000
vn 0.000000 -1.000000 0.000000
vn 0.000000 -1.000000 0.000000
vn 0.000000 -1.000000 0.000000
vn 0.000000 -1.000000 0.000000
vn 0.000000 -1.000000 0.000000
vn 0.000000 -1.000000 0.000000
vn 0.000000 -1.000000 0.000000
vn 0.000000 -1.000000 0.000000
vn 0.000000 -1.000000 0.000000
vn 0.000000 -1.000000 0.000000
vn 0.000000 -1.000000 0.000000
vn 0.000000 -1.000000 0.000000
vn 0.000000 -1.000000 0.000000
vn 0.000000 -1.000000 0.000000
vn 0.000000 -1.000000 0.000000
vn 0.666048 0.713422 -0.217737
vn 0.566226 0.712790 -0.413906
vn 0.000000 1.000000 0.000000
vn 0.566226 0.712790 -0.413906
vn 0.411074 0.712012 -0.569260
vn 0.000000 1.000000 0.000000
vn 0.411074 0.712012 -0.569260
vn 0.215982 0.711384 -0.668794
vn 0.000000 1.000000 0.000000
vn 0.215982 0.711384 -0.668794
vn 0.000000 0.711142 -0.703048
vn 0.000000 1.000000 0.000000
vn 0.000000 0.711142 -0.703048
vn -0.215982 0.711382 -0.668796
vn 0.000000 1.000000 0.000000
vn -0.215982 0.711382 -0.668796
vn -0.411075 0.712011 -0.569260
vn 0.000000 1.000000 0.000000
vn -0.411075 0.712011 -0.569260
vn -0.566226 0.712790 -0.413906
vn 0.000000 1.000000 0.000000
vn -0.566226 0.712790 -0.413906
vn -0.666048 0.713421 -0.217738
vn 0.000000 1.000000 0.000000
vn -0.666048 0.713421 -0.217738
vn -0.700490 0.713663 0.000000
vn 0.000000 1.000000 0.000000
vn -0.700490 0.713663 0.000000
vn -0.666048 0.713422 0.217738
vn 0.000000 1.000000 0.000000
vn -0.666048 0.713422 0.217738
vn -0.566225 0.712791 0.413906
vn 0.000000 1.000000 0.000000
vn -0.566225 0.712791 0.413906
vn -0.411074 0.712012 0.569261
vn 0.000000 1.000000 0.000000
vn -0.411074 0.712012 0.569261
vn -0.215982 0.711382 0.668795
vn 0.000000 1.000000 0.000000
vn -0.215982 0.711382 0.668795
vn 0.000000 0.711143 0.703047
vn 0.000000 1.000000 0.000000
vn 0.000000 0.711143 0.703047
vn 0.215982 0.711382 0.668795
vn 0.000000 1.000000 0.000000
vn 0.215982 0.711382 0.668795
vn 0.411075 0.712011 0.569261
vn 0.000000 1.000000 0.000000
vn 0.411075 0.712011 0.569261
vn 0.566225 0.712791 0.413906
vn 0.000000 1.000000 0.000000
vn 0.566225 0.712791 0.413906
vn 0.666048 0.713422 0.217738
vn 0.000000 1.000000 0.000000
vn 0.666048 0.713422 0.217738
vn 0.700489 0.713663 0.000001
vn 0.000000 1.000000 0.000000
vn 0.700489 0.713663 0.000001
vn 0.666048 0.713422 -0.217737
vn 0.000000 1.000000 0.000000
vn 0.000000 0.000000 1.000000
vn 0.000000 0.000000 1.000000
vn 0.000000 0.000000 1.000000
vn 0.000000 0.000000 1.000000
vn 0.000000 1.000000 0.000000
vn 0.000000 1.000000 0.000000
vn 0.000000 1.000000 0.000000
vn 0.000000 1.000000 0.000000
vn 0.000000 0.000000 -1.000000
vn 0.000000 0.000000 -1.000000
vn 0.000000 0.000000 -1.000000
vn 0.000000 0.000000 -1.000000
vn 0.000000 -1.000000 0.000000
vn 0.000000 -1.000000 0.000000
vn 0.000000 -1.000000 0.000000
vn 0.000000 -1.000000 0.000000
vn 1.000000 0.000000 0.000000
vn 1.000000 0.000000 0.000000
vn 1.000000 0.000000 0.000000
vn 1.000000 0.000000 0.000000
vn -1.000000 0.000000 0.000000
vn -1.000000 0.000000 0.000000
vn -1.000000 0.000000 0.000000
vn -1.000000 0.000000 0.000000
s off
g banco1:polySurface13
usemtl banco1:lambert2SG
f 1/1/1 2/2/2 22/3/3 21/4/4
f 2/2/5 3/5/6 23/6/7 22/3/8
f 3/5/9 4/7/10 24/8/11 23/6/12
f 4/7/13 5/9/14 25/10/15 24/8/16
f 5/9/17 6/11/18 26/12/19 25/10/20
f 6/11/21 7/13/22 27/14/23 26/12/24
f 7/13/25 8/15/26 28/16/27 27/14/28
f 8/15/29 9/17/30 29/18/31 28/16/32
f 9/17/33 10/19/34 30/20/35 29/18/36
f 10/19/37 11/21/38 31/22/39 30/20/40
f 11/21/41 12/23/42 32/24/43 31/22/44
f 12/23/45 13/25/46 33/26/47 32/24/48
f 13/25/49 14/27/50 34/28/51 33/26/52
f 14/27/53 15/29/54 35/30/55 34/28/56
f 15/29/57 16/31/58 36/32/59 35/30/60
f 16/31/61 17/33/62 37/34/63 36/32/64
f 17/33/65 18/35/66 38/36/67 37/34/68
f 18/35/69 19/37/70 39/38/71 38/36/72
f 19/37/73 20/39/74 40/40/75 39/38/76
f 20/39/77 1/41/78 21/42/79 40/40/80
f 2/43/81 1/44/82 41/45/83
f 3/46/84 2/43/85 41/45/86
f 4/47/87 3/46/88 41/45/89
f 5/48/90 4/47/91 41/45/92
f 6/49/93 5/48/94 41/45/95
f 7/50/96 6/49/97 41/45/98
f 8/51/99 7/50/100 41/45/101
f 9/52/102 8/51/103 41/45/104
f 10/53/105 9/52/106 41/45/107
f 11/54/108 10/53/109 41/45/110
f 12/55/111 11/54/112 41/45/113
f 13/56/114 12/55/115 41/45/116
f 14/57/117 13/56/118 41/45/119
f 15/58/120 14/57/121 41/45/122
f 16/59/123 15/58/124 41/45/125
f 17/60/126 16/59/127 41/45/128
f 18/61/129 17/60/130 41/45/131
f 19/62/132 18/61/133 41/45/134
f 20/63/135 19/62/136 41/45/137
f 1/44/138 20/63/139 41/45/140
f 21/64/141 22/65/142 42/66/143
f 22/65/144 23/67/145 42/66/146
f 23/67/147 24/68/148 42/66/149
f 24/68/150 25/69/151 42/66/152
f 25/69/153 26/70/154 42/66/155
f 26/70/156 27/71/157 42/66/158
f 27/71/159 28/72/160 42/66/161
f 28/72/162 29/73/163 42/66/164
f 29/73/165 30/74/166 42/66/167
f 30/74/168 31/75/169 42/66/170
f 31/75/171 32/76/172 42/66/173
f 32/76/174 33/77/175 42/66/176
f 33/77/177 34/78/178 42/66/179
f 34/78/180 35/79/181 42/66/182
f 35/79/183 36/80/184 42/66/185
f 36/80/186 37/81/187 42/66/188
f 37/81/189 38/82/190 42/66/191
f 38/82/192 39/83/193 42/66/194
f 39/83/195 40/84/196 42/66/197
f 40/84/198 21/64/199 42/66/200
usemtl banco1:lambert4SG
f 43/85/201 62/86/202 61/87/203 60/88/204 59/89/205 58/90/206 57/91/207 56/92/208 55/93/209 54/94/210 53/95/211 52/96/212 51/97/213 50/98/214 49/99/215 48/100/216 47/101/217 46/102/218 45/103/219 44/104/220
f 43/105/221 44/106/222 63/107/223
f 44/106/224 45/108/225 63/107/226
f 45/108/227 46/109/228 63/107/229
f 46/109/230 47/110/231 63/107/232
f 47/110/233 48/111/234 63/107/235
f 48/111/236 49/112/237 63/107/238
f 49/112/239 50/113/240 63/107/241
f 50/113/242 51/114/243 63/107/244
f 51/114/245 52/115/246 63/107/247
f 52/115/248 53/116/249 63/107/250
f 53/116/251 54/117/252 63/107/253
f 54/117/254 55/118/255 63/107/256
f 55/118/257 56/119/258 63/107/259
f 56/119/260 57/120/261 63/107/262
f 57/120/263 58/121/264 63/107/265
f 58/121/266 59/122/267 63/107/268
f 59/122/269 60/123/270 63/107/271
f 60/123/272 61/124/273 63/107/274
f 61/124/275 62/125/276 63/107/277
f 62/125/278 43/126/279 63/107/280
usemtl lambert4SG
f 64/127/281 65/128/282 67/129/283 66/130/284
usemtl lambert3SG
f 66/130/285 67/129/286 69/131/287 68/132/288
usemtl lambert4SG
f 68/132/289 69/131/290 71/133/291 70/134/292
usemtl lambert3SG
f 70/134/293 71/133/294 65/135/295 64/136/296
usemtl lambert4SG
f 65/128/297 71/137/298 69/138/299 67/129/300
f 70/139/301 64/127/302 66/130/303 68/140/304
