# This file uses centimeters as units for non-parametric coordinates.

mtllib tinasroom.mtl
g default
v -10.434898 6.639213 -12.022180
v 0.827542 6.639213 -12.022180
v -10.434898 18.247443 -12.022180
v 0.827542 18.247443 -12.022180
v -10.434898 18.247443 -12.343275
v 0.827542 18.247443 -12.343275
v -10.434898 6.639213 -12.343275
v 0.827542 6.639213 -12.343275
v -4.171202 6.639213 -12.022180
v -4.171202 6.639213 -12.343275
v -4.171202 18.247443 -12.343275
v -4.171202 18.247443 -12.022180
v -10.434898 11.600896 -12.022180
v -4.171202 11.600896 -12.022180
v 0.827542 11.600896 -12.022180
v 0.827542 11.600896 -12.343275
v -4.171202 11.600896 -12.343275
v -10.434898 11.600896 -12.343275
v -10.434898 9.403362 -12.022180
v -4.171202 9.403362 -12.022180
v 0.827542 9.403362 -12.022180
v 0.827542 9.403362 -12.343275
v -4.171202 9.403362 -12.343275
v -10.434898 9.403362 -12.343275
v -2.468739 6.639213 -12.022180
v -2.468739 9.403362 -12.022180
v -2.468739 11.600896 -12.022180
v -2.468739 18.247443 -12.022180
v -2.468739 18.247443 -12.343275
v -2.468739 11.600896 -12.343275
v -2.468739 9.403362 -12.343275
v -2.468739 6.639213 -12.343275
vt 0.375000 0.000000
vt 0.625000 0.000000
vt 0.375000 0.250000
vt 0.625000 0.250000
vt 0.375000 0.500000
vt 0.625000 0.500000
vt 0.375000 0.750000
vt 0.625000 0.750000
vt 0.375000 1.000000
vt 0.625000 1.000000
vt 0.875000 0.000000
vt 0.875000 0.250000
vt 0.125000 0.000000
vt 0.125000 0.250000
vt 0.514040 0.000000
vt 0.514040 1.000000
vt 0.514040 0.750000
vt 0.514040 0.500000
vt 0.514040 0.250000
vt 0.375000 0.106857
vt 0.206852 0.913403
vt 0.625000 0.106857
vt 0.625000 0.643143
vt 0.875000 0.106857
vt 0.514040 0.643143
vt 0.125000 0.106857
vt 0.375000 0.643143
vt 0.375000 0.059530
vt 0.206852 0.094008
vt 0.625000 0.059530
vt 0.625000 0.690470
vt 0.875000 0.059530
vt 0.514040 0.690470
vt 0.125000 0.059530
vt 0.375000 0.690470
vt 0.551830 0.000000
vt 0.551830 1.000000
vt 0.774386 0.094008
vt 0.774386 0.913403
vt 0.551830 0.250000
vt 0.551830 0.500000
vt 0.551830 0.643143
vt 0.551830 0.690470
vt 0.551830 0.750000
vn 0.000000 0.000000 1.000000
vn 0.000000 0.000000 1.000000
vn 0.000000 0.000000 1.000000
vn 0.000000 0.000000 1.000000
vn 0.000000 1.000000 0.000000
vn 0.000000 1.000000 0.000000
vn 0.000000 1.000000 0.000000
vn 0.000000 1.000000 0.000000
vn 0.000000 0.000000 -1.000000
vn 0.000000 0.000000 -1.000000
vn 0.000000 0.000000 -1.000000
vn 0.000000 0.000000 -1.000000
vn 0.000000 -1.000000 0.000000
vn 0.000000 -1.000000 0.000000
vn 0.000000 -1.000000 0.000000
vn 0.000000 -1.000000 0.000000
vn 1.000000 0.000000 0.000000
vn 1.000000 0.000000 0.000000
vn 1.000000 0.000000 0.000000
vn 1.000000 0.000000 0.000000
vn -1.000000 0.000000 0.000000
vn -1.000000 0.000000 0.000000
vn -1.000000 0.000000 0.000000
vn -1.000000 0.000000 0.000000
vn 0.000000 -1.000000 0.000000
vn 0.000000 -1.000000 0.000000
vn 0.000000 0.000000 -1.000000
vn 0.000000 0.000000 -1.000000
vn 0.000000 1.000000 0.000000
vn 0.000000 1.000000 0.000000
vn 0.000000 0.000000 1.000000
vn 0.000000 0.000000 1.000000
vn 0.000000 0.000000 1.000000
vn 0.000000 0.000000 1.000000
vn 0.000000 0.000000 1.000000
vn 1.000000 0.000000 0.000000
vn 1.000000 0.000000 0.000000
vn 0.000000 0.000000 -1.000000
vn 0.000000 0.000000 -1.000000
vn 0.000000 0.000000 -1.000000
vn -1.000000 0.000000 0.000000
vn -1.000000 0.000000 0.000000
vn 0.000000 0.000000 1.000000
vn 0.000000 0.000000 1.000000
vn 0.000000 0.000000 1.000000
vn 1.000000 0.000000 0.000000
vn 1.000000 0.000000 0.000000
vn 0.000000 0.000000 -1.000000
vn 0.000000 0.000000 -1.000000
vn 0.000000 0.000000 -1.000000
vn -1.000000 0.000000 0.000000
vn -1.000000 0.000000 0.000000
vn 0.000000 0.000000 1.000000
vn 0.000000 0.000000 1.000000
vn 0.000000 0.000000 1.000000
vn 0.000000 0.000000 1.000000
vn 0.000000 1.000000 0.000000
vn 0.000000 1.000000 0.000000
vn 0.000000 0.000000 -1.000000
vn 0.000000 0.000000 -1.000000
vn 0.000000 0.000000 -1.000000
vn 0.000000 0.000000 -1.000000
vn 0.000000 -1.000000 0.000000
vn 0.000000 -1.000000 0.000000
s 1
g pCube1
usemtl lambert2SG
f 12/19/1 14/21/2 27/39/3 28/40/4
s 2
f 11/18/5 12/19/6 28/40/7 29/41/8
s 3
f 29/41/9 30/42/10 17/25/11 11/18/12
s 4
f 9/16/13 10/17/14 32/44/15 25/37/16
s 5
f 15/22/17 16/24/18 6/12/19 4/4/20
s 6
f 18/26/21 13/20/22 3/3/23 5/14/24
s 4
f 7/7/25 10/17/14 9/16/13 1/9/26
s 3
f 5/5/27 11/18/12 17/25/11 18/27/28
s 2
f 3/3/29 12/19/6 11/18/5 5/5/30
s 1
f 13/20/31 14/21/2 12/19/1 3/3/32
f 19/28/33 20/29/34 14/21/2 13/20/31
usemtl lambert15SG
f 26/38/35 27/39/3 14/21/2 20/29/34
s 5
usemtl lambert2SG
f 21/30/36 22/32/37 16/24/18 15/22/17
s 3
f 30/42/10 31/43/38 23/33/39 17/25/11
f 18/27/28 17/25/11 23/33/39 24/35/40
s 6
f 24/34/41 19/28/42 13/20/22 18/26/21
s 1
f 1/1/43 9/15/44 20/29/34 19/28/33
f 25/36/45 26/38/35 20/29/34 9/15/44
s 5
f 2/2/46 8/11/47 22/32/37 21/30/36
s 3
f 10/17/48 23/33/39 31/43/38 32/44/49
f 24/35/40 23/33/39 10/17/48 7/7/50
s 6
f 7/13/51 1/1/52 19/28/42 24/34/41
s 1
f 21/30/53 26/38/35 25/36/45 2/2/54
f 15/22/55 27/39/3 26/38/35 21/30/53
f 28/40/4 27/39/3 15/22/55 4/4/56
s 2
f 29/41/8 28/40/7 4/4/57 6/6/58
s 3
f 16/23/59 30/42/10 29/41/9 6/6/60
f 22/31/61 31/43/38 30/42/10 16/23/59
f 32/44/49 31/43/38 22/31/61 8/8/62
s 4
f 25/37/16 32/44/15 8/8/63 2/10/64
g default
v -10.359372 6.643589 -1.004347
v 0.296343 6.643589 -1.004347
v -10.359372 6.906735 -1.004347
v 0.296343 6.906735 -1.004347
v -10.359372 6.906735 -12.114279
v 0.296343 6.906735 -12.114279
v -10.359372 6.643589 -12.114279
v 0.296343 6.643589 -12.114279
vt 0.375000 0.000000
vt 0.625000 0.000000
vt 0.375000 0.250000
vt 0.625000 0.250000
vt 0.375000 0.500000
vt 0.625000 0.500000
vt 0.375000 0.750000
vt 0.625000 0.750000
vt 0.375000 1.000000
vt 0.625000 1.000000
vt 0.875000 0.000000
vt 0.875000 0.250000
vt 0.125000 0.000000
vt 0.125000 0.250000
vn 0.000000 0.000000 1.000000
vn 0.000000 0.000000 1.000000
vn 0.000000 0.000000 1.000000
vn 0.000000 0.000000 1.000000
vn 0.000000 1.000000 0.000000
vn 0.000000 1.000000 0.000000
vn 0.000000 1.000000 0.000000
vn 0.000000 1.000000 0.000000
vn 0.000000 0.000000 -1.000000
vn 0.000000 0.000000 -1.000000
vn 0.000000 0.000000 -1.000000
vn 0.000000 0.000000 -1.000000
vn 0.000000 -1.000000 0.000000
vn 0.000000 -1.000000 0.000000
vn 0.000000 -1.000000 0.000000
vn 0.000000 -1.000000 0.000000
vn 1.000000 0.000000 0.000000
vn 1.000000 0.000000 0.000000
vn 1.000000 0.000000 0.000000
vn 1.000000 0.000000 0.000000
vn -1.000000 0.000000 0.000000
vn -1.000000 0.000000 0.000000
vn -1.000000 0.000000 0.000000
vn -1.000000 0.000000 0.000000
s off
g pCube2
usemtl lambert3SG
f 33/45/65 34/46/66 36/48/67 35/47/68
f 35/47/69 36/48/70 38/50/71 37/49/72
f 37/49/73 38/50/74 40/52/75 39/51/76
f 39/51/77 40/52/78 34/54/79 33/53/80
f 34/46/81 40/55/82 38/56/83 36/48/84
f 39/57/85 33/45/86 35/47/87 37/58/88
g default
v -10.434898 6.639213 -0.987401
v 0.827542 6.639213 -0.987401
v -10.434898 18.247443 -0.987401
v 0.827542 18.247443 -0.987401
v -10.434898 18.247443 -1.308496
v 0.827542 18.247443 -1.308496
v -10.434898 6.639213 -1.308496
v 0.827542 6.639213 -1.308496
v -8.400349 6.639213 -0.987401
v -8.400349 6.639213 -1.308496
v -8.400349 18.247443 -1.308496
v -8.400349 18.247443 -0.987401
v -10.434898 12.798307 -0.987401
v -8.400349 12.798308 -0.987401
v 0.827542 12.798307 -0.987401
v 0.827542 12.798308 -1.308496
v -8.400349 12.798307 -1.308496
v -10.434898 12.798308 -1.308496
v -6.247879 6.639213 -0.987401
v -6.247879 12.798308 -0.987401
v -6.247879 18.247443 -0.987401
v -6.247879 18.247443 -1.308496
v -6.247879 12.798308 -1.308496
v -6.247879 6.639213 -1.308496
v -1.125684 12.798308 -1.308496
v -1.125685 6.639213 -1.308496
v -1.125685 6.639213 -0.987401
v -1.125685 12.798308 -0.987401
v -1.125685 18.247443 -0.987401
v -1.125685 18.247443 -1.308496
vt 0.375000 0.000000
vt 0.625000 0.000000
vt 0.375000 0.250000
vt 0.625000 0.250000
vt 0.375000 0.500000
vt 0.625000 0.500000
vt 0.856865 0.116613
vt 0.625000 0.750000
vt 0.375000 1.000000
vt 0.625000 1.000000
vt 0.875000 0.000000
vt 0.875000 0.250000
vt 0.125000 0.000000
vt 0.125000 0.250000
vt 0.420162 0.000000
vt 0.420162 1.000000
vt 0.165514 0.111999
vt 0.420162 0.500000
vt 0.420162 0.250000
vt 0.375000 0.132645
vt 0.420162 0.132645
vt 0.625000 0.132645
vt 0.625000 0.617355
vt 0.875000 0.132645
vt 0.160455 0.869901
vt 0.125000 0.132645
vt 0.851806 0.874515
vt 0.467942 0.000000
vt 0.467942 1.000000
vt 0.467942 0.132645
vt 0.467942 0.250000
vt 0.467942 0.500000
vt 0.963028 0.858367
vt 0.966163 0.244202
vt -0.011788 0.853391
vt -0.008654 0.239226
vt 0.581643 0.000000
vt 0.581643 1.000000
vt 0.581643 0.132645
vt 0.581643 0.250000
vt 0.581643 0.500000
vn -0.000000 0.000000 1.000000
vn -0.000000 0.000000 1.000000
vn 0.000000 0.000000 1.000000
vn -0.000000 0.000000 1.000000
vn 0.000000 1.000000 0.000000
vn 0.000000 1.000000 0.000000
vn 0.000000 1.000000 0.000000
vn 0.000000 1.000000 0.000000
vn 0.000000 0.000000 -1.000000
vn 0.000000 0.000000 -1.000000
vn -0.000000 0.000000 -1.000000
vn -0.000000 0.000000 -1.000000
vn 0.000000 -1.000000 0.000000
vn 0.000000 -1.000000 0.000000
vn 0.000000 -1.000000 0.000000
vn 0.000000 -1.000000 0.000000
vn 1.000000 0.000000 0.000000
vn 1.000000 0.000000 0.000000
vn 1.000000 0.000000 0.000000
vn 1.000000 0.000000 0.000000
vn -1.000000 0.000000 0.000000
vn -1.000000 0.000000 0.000000
vn -1.000000 0.000000 0.000000
vn -1.000000 0.000000 0.000000
vn 0.000000 -1.000000 0.000000
vn 0.000000 -1.000000 0.000000
vn -0.000000 0.000000 -1.000000
vn -0.000000 0.000000 -1.000000
vn 0.000000 1.000000 0.000000
vn 0.000000 1.000000 0.000000
vn 0.000000 0.000000 1.000000
vn 0.000000 0.000000 1.000000
vn 0.000000 0.000000 1.000000
vn 0.000000 0.000000 1.000000
vn 0.000000 0.000000 1.000000
vn 1.000000 0.000000 0.000000
vn 1.000000 0.000000 0.000000
vn -0.000000 0.000000 -1.000000
vn 0.000000 -0.000000 -1.000000
vn -0.000000 0.000000 -1.000000
vn -1.000000 0.000000 0.000000
vn -1.000000 0.000000 0.000000
vn 0.000000 0.000000 1.000000
vn 0.000000 0.000000 1.000000
vn 0.000000 0.000000 1.000000
vn 0.000000 1.000000 0.000000
vn 0.000000 1.000000 0.000000
vn 0.000000 0.000000 -1.000000
vn 0.000000 0.000000 -1.000000
vn 0.000000 -0.000000 -1.000000
vn 0.000000 -1.000000 0.000000
vn 0.000000 -1.000000 0.000000
vn 0.000000 0.000000 -1.000000
vn 0.000000 0.000000 -1.000000
vn 0.000000 -1.000000 0.000000
vn 0.000000 -1.000000 0.000000
vn 0.000000 0.000000 1.000000
vn 0.000000 0.000000 1.000000
vn 0.000000 0.000000 1.000000
vn 0.000000 1.000000 0.000000
vn 0.000000 1.000000 0.000000
vn 0.000000 0.000000 -1.000000
s 1
g pasted__pCube1 group1
usemtl lambert2SG
f 52/77/89 54/79/90 60/88/91 61/89/92
s 2
f 51/76/93 52/77/94 61/89/95 62/90/96
s 3
f 62/90/97 63/91/98 57/83/99 51/76/100
s 4
f 49/74/101 50/75/102 64/92/103 59/87/104
s 5
f 55/80/105 56/82/106 46/70/107 44/62/108
s 6
f 58/84/109 53/78/110 43/61/111 45/72/112
s 4
f 47/65/113 50/75/102 49/74/101 41/67/114
s 3
f 45/63/115 51/76/100 57/83/99 58/85/116
s 2
f 43/61/117 52/77/94 51/76/93 45/63/118
s 1
f 53/78/119 54/79/90 52/77/89 43/61/120
f 41/59/121 49/73/122 54/79/90 53/78/119
f 59/86/123 60/88/91 54/79/90 49/73/122
s 5
f 42/60/124 48/69/125 56/82/106 55/80/105
s 3
f 50/75/126 57/83/99 63/91/98 64/92/127
usemtl lambert19SG
f 58/85/116 57/83/99 50/75/126 47/65/128
s 6
usemtl lambert2SG
f 47/71/129 41/59/130 53/78/110 58/84/109
s 1
f 67/95/131 68/97/132 60/88/91 59/86/123
f 61/89/92 60/88/91 68/97/132 69/98/133
s 2
f 62/90/96 61/89/95 69/98/134 70/99/135
s 3
f 70/99/136 65/93/137 63/91/98 62/90/97
usemtl lambert20SG
f 64/92/127 63/91/98 65/93/137 66/94/138
s 4
usemtl lambert2SG
f 59/87/104 64/92/103 66/94/139 67/96/140
s 3
f 66/94/138 65/93/137 56/81/141 48/66/142
s 4
f 67/96/140 66/94/139 48/66/143 42/68/144
s 1
f 55/80/145 68/97/132 67/95/131 42/60/146
f 69/98/133 68/97/132 55/80/145 44/62/147
s 2
f 70/99/135 69/98/134 44/62/148 46/64/149
s 3
f 56/81/141 65/93/137 70/99/136 46/64/150
g default
v -10.359372 18.015294 -1.004347
v 0.296343 18.015294 -1.004347
v -10.359372 18.278440 -1.004347
v 0.296343 18.278440 -1.004347
v -10.359372 18.278440 -12.114279
v 0.296343 18.278440 -12.114279
v -10.359372 18.015294 -12.114279
v 0.296343 18.015294 -12.114279
vt 0.375000 0.000000
vt 0.625000 0.000000
vt 0.375000 0.250000
vt 0.625000 0.250000
vt 0.375000 0.500000
vt 0.625000 0.500000
vt 0.375000 0.750000
vt 0.625000 0.750000
vt 0.375000 1.000000
vt 0.625000 1.000000
vt 0.875000 0.000000
vt 0.875000 0.250000
vt 0.125000 0.000000
vt 0.125000 0.250000
vn 0.000000 0.000000 1.000000
vn 0.000000 0.000000 1.000000
vn 0.000000 0.000000 1.000000
vn 0.000000 0.000000 1.000000
vn 0.000000 1.000000 0.000000
vn 0.000000 1.000000 0.000000
vn 0.000000 1.000000 0.000000
vn 0.000000 1.000000 0.000000
vn 0.000000 0.000000 -1.000000
vn 0.000000 0.000000 -1.000000
vn 0.000000 0.000000 -1.000000
vn 0.000000 0.000000 -1.000000
vn 0.000000 -1.000000 0.000000
vn 0.000000 -1.000000 0.000000
vn 0.000000 -1.000000 0.000000
vn 0.000000 -1.000000 0.000000
vn 1.000000 0.000000 0.000000
vn 1.000000 0.000000 0.000000
vn 1.000000 0.000000 0.000000
vn 1.000000 0.000000 0.000000
vn -1.000000 0.000000 0.000000
vn -1.000000 0.000000 0.000000
vn -1.000000 0.000000 0.000000
vn -1.000000 0.000000 0.000000
s off
g pasted__pCube2 group13
usemtl pasted__lambert3SG
f 71/100/151 72/101/152 74/103/153 73/102/154
f 73/102/155 74/103/156 76/105/157 75/104/158
f 75/104/159 76/105/160 78/107/161 77/106/162
f 77/106/163 78/107/164 72/109/165 71/108/166
f 72/101/167 78/110/168 76/111/169 74/103/170
f 77/112/171 71/100/172 73/102/173 75/113/174
g default
v 0.549618 6.639213 -1.173841
v 0.781187 6.639213 -1.173841
v 0.549618 18.247443 -1.173841
v 0.781187 18.247443 -1.173841
v 0.549618 18.247443 -12.114946
v 0.781187 18.247443 -12.114946
v 0.549618 6.639213 -12.114946
v 0.781187 6.639213 -12.114946
v 0.549618 18.247443 -3.790712
v 0.781187 18.247443 -3.790712
v 0.781187 6.639213 -3.790712
v 0.549618 6.639213 -3.790712
v 0.549618 6.639213 -4.443074
v 0.781187 6.639213 -4.443074
v 0.781187 18.247443 -4.443074
v 0.549618 18.247443 -4.443074
v 0.549618 6.639213 -7.978173
v 0.781187 6.639213 -7.978173
v 0.781187 18.247443 -7.978173
v 0.549618 18.247443 -7.978173
v 0.549618 13.645964 -1.173841
v 0.781187 13.645964 -1.173841
v 0.781187 13.645964 -3.790712
v 0.781187 13.645964 -4.443074
v 0.781187 13.645964 -7.978173
v 0.781187 13.645964 -12.114946
v 0.549618 13.645964 -12.114946
v 0.549618 13.645964 -7.978173
v 0.549618 13.645964 -4.443074
v 0.549618 13.645964 -3.790712
vt 0.867124 0.080542
vt 0.625000 0.000000
vt 0.375000 0.250000
vt 0.625000 0.250000
vt 0.375000 0.500000
vt 0.625000 0.500000
vt 0.375000 0.750000
vt 0.625000 0.750000
vt 0.375000 1.000000
vt 0.625000 1.000000
vt 0.875000 0.000000
vt 0.875000 0.250000
vt 0.125000 0.000000
vt 0.125000 0.250000
vt 0.315205 0.250000
vt 0.375000 0.309794
vt 0.625000 0.309794
vt 0.684795 0.250000
vt 0.625000 0.940206
vt 0.684795 0.000000
vt 0.151028 0.080542
vt 0.375000 0.940206
vt 0.937746 0.033802
vt 0.375000 0.925299
vt 0.625000 0.925299
vt 0.699701 0.000000
vt 0.625000 0.324701
vt 0.699701 0.250000
vt 0.300299 0.250000
vt 0.375000 0.324701
vt 0.052839 0.033802
vt 0.375000 0.844524
vt 0.625000 0.844524
vt 0.780476 0.000000
vt 0.625000 0.405476
vt 0.780476 0.250000
vt 0.219524 0.250000
vt 0.375000 0.405476
vt 0.867124 0.879646
vt 0.625000 0.150900
vt 0.684795 0.150900
vt 0.699701 0.150900
vt 0.780476 0.150900
vt 0.625000 0.599100
vt 0.875000 0.150900
vt 0.125000 0.150900
vt 0.375000 0.599100
vt 0.052839 0.889360
vt 0.937746 0.889360
vt 0.151028 0.879646
vn 0.000000 0.000000 1.000000
vn 0.000000 0.000000 1.000000
vn 0.000000 0.000000 1.000000
vn 0.000000 0.000000 1.000000
vn 0.000000 1.000000 0.000000
vn 0.000000 1.000000 0.000000
vn 0.000000 1.000000 0.000000
vn 0.000000 1.000000 0.000000
vn 0.000000 0.000000 -1.000000
vn 0.000000 0.000000 -1.000000
vn 0.000000 0.000000 -1.000000
vn 0.000000 0.000000 -1.000000
vn 0.000000 -1.000000 0.000000
vn 0.000000 -1.000000 0.000000
vn 0.000000 -1.000000 0.000000
vn 0.000000 -1.000000 0.000000
vn 1.000000 0.000000 0.000000
vn 1.000000 0.000000 0.000000
vn 1.000000 0.000000 0.000000
vn 1.000000 0.000000 0.000000
vn -1.000000 -0.000000 0.000000
vn -1.000000 -0.000000 0.000000
vn -1.000000 0.000000 0.000000
vn -1.000000 0.000000 0.000000
vn 0.000000 1.000000 0.000000
vn 0.000000 1.000000 0.000000
vn 1.000000 0.000000 0.000000
vn 1.000000 0.000000 0.000000
vn 0.000000 -1.000000 0.000000
vn 0.000000 -1.000000 0.000000
vn -1.000000 0.000000 0.000000
vn -1.000000 0.000000 0.000000
vn 0.000000 -1.000000 0.000000
vn 0.000000 -1.000000 0.000000
vn 1.000000 -0.000000 0.000000
vn 1.000000 0.000000 0.000000
vn 0.000000 1.000000 0.000000
vn 0.000000 1.000000 0.000000
vn -1.000000 -0.000000 0.000000
vn -1.000000 0.000000 0.000000
vn 0.000000 -1.000000 0.000000
vn 0.000000 -1.000000 0.000000
vn 1.000000 -0.000000 0.000000
vn 1.000000 0.000000 0.000000
vn 0.000000 1.000000 0.000000
vn 0.000000 1.000000 0.000000
vn -1.000000 0.000000 0.000000
vn -1.000000 0.000000 0.000000
vn 0.000000 0.000000 1.000000
vn 0.000000 0.000000 1.000000
vn 1.000000 0.000000 0.000000
vn 1.000000 0.000000 0.000000
vn 1.000000 -0.000000 0.000000
vn 1.000000 -0.000000 0.000000
vn 1.000000 -0.000000 0.000000
vn 0.000000 0.000000 -1.000000
vn 0.000000 0.000000 -1.000000
vn -1.000000 0.000000 0.000000
vn -1.000000 0.000000 0.000000
vn -1.000000 0.000000 0.000000
vn -1.000000 0.000000 0.000000
vn -1.000000 0.000000 0.000000
s 1
g pasted__pasted__pCube1 pasted__group1 group12
usemtl pasted__lambert2SG
f 99/152/175 100/153/176 82/117/177 81/116/178
s 2
f 87/129/179 88/130/180 93/140/181 94/143/182
s 3
f 83/118/183 84/119/184 104/157/185 105/160/186
s 4
f 91/137/187 92/138/188 89/132/189 90/135/190
s 5
f 88/131/191 101/154/192 102/155/193 93/141/194
s 6
f 94/142/195 107/162/196 108/163/197 87/128/198
s 2
f 81/116/199 82/117/200 88/130/180 87/129/179
s 5
f 100/153/201 101/154/192 88/131/191 82/117/202
s 4
f 90/135/190 89/132/189 80/123/203 79/122/204
s 6
f 87/128/198 108/163/197 99/152/205 81/116/206
s 4
f 95/145/207 96/146/208 92/138/188 91/137/187
s 5
f 93/141/194 102/155/193 103/156/209 97/149/210
s 2
f 94/143/182 93/140/181 97/148/211 98/151/212
s 6
f 98/150/213 106/161/214 107/162/196 94/142/195
s 4
f 85/120/215 86/121/216 96/146/208 95/145/207
s 5
f 97/149/210 103/156/209 104/158/217 84/125/218
s 2
f 98/151/212 97/148/211 84/119/219 83/118/220
s 6
f 105/159/221 106/161/214 98/150/213 83/127/222
s 1
f 79/114/223 80/115/224 100/153/176 99/152/175
s 5
f 80/115/225 89/133/226 101/154/192 100/153/201
f 102/155/193 101/154/192 89/133/226 92/139/227
f 103/156/209 102/155/193 92/139/227 96/147/228
f 104/158/217 103/156/209 96/147/228 86/124/229
s 3
f 105/160/186 104/157/185 86/121/230 85/120/231
s 6
f 85/126/232 95/144/233 106/161/214 105/159/221
usemtl lambert17SG
f 107/162/196 106/161/214 95/144/233 91/136/234
usemtl pasted__lambert2SG
f 108/163/197 107/162/196 91/136/234 90/134/235
usemtl lambert18SG
f 99/152/205 108/163/197 90/134/235 79/114/236
g default
v -10.501170 6.639213 -1.173841
v -10.269601 6.639213 -1.173841
v -10.501170 18.247443 -1.173841
v -10.269601 18.247443 -1.173841
v -10.501170 18.247443 -12.114946
v -10.269601 18.247443 -12.114946
v -10.501170 6.639213 -12.114946
v -10.269601 6.639213 -12.114946
v -10.501170 18.247443 -3.790712
v -10.269601 18.247443 -3.790712
v -10.269601 6.639213 -3.790712
v -10.501170 6.639213 -3.790712
v -10.501170 6.639213 -4.443074
v -10.269601 6.639213 -4.443074
v -10.269601 18.247443 -4.443074
v -10.501170 18.247443 -4.443074
v -10.501170 6.639213 -7.978173
v -10.269601 6.639213 -7.978173
v -10.269601 18.247443 -7.978173
v -10.501170 18.247443 -7.978173
v -10.501170 13.645964 -1.173841
v -10.269601 13.645964 -1.173841
v -10.269601 13.645964 -3.790712
v -10.269601 13.645964 -4.443074
v -10.269601 13.645964 -7.978173
v -10.269601 13.645964 -12.114946
v -10.501170 13.645964 -12.114946
v -10.501170 13.645964 -7.978173
v -10.501170 13.645964 -4.443074
v -10.501170 13.645964 -3.790712
vt 0.867124 0.080542
vt 0.625000 0.000000
vt 0.375000 0.250000
vt 0.625000 0.250000
vt 0.375000 0.500000
vt 0.625000 0.500000
vt 0.375000 0.750000
vt 0.625000 0.750000
vt 0.375000 1.000000
vt 0.625000 1.000000
vt 0.875000 0.000000
vt 0.875000 0.250000
vt 0.125000 0.000000
vt 0.125000 0.250000
vt 0.315205 0.250000
vt 0.375000 0.309794
vt 0.625000 0.309794
vt 0.684795 0.250000
vt 0.625000 0.940206
vt 0.684795 0.000000
vt 0.151028 0.080542
vt 0.375000 0.940206
vt 0.937746 0.033802
vt 0.375000 0.925299
vt 0.625000 0.925299
vt 0.699701 0.000000
vt 0.625000 0.324701
vt 0.699701 0.250000
vt 0.300299 0.250000
vt 0.375000 0.324701
vt 0.052839 0.033802
vt 0.375000 0.844524
vt 0.625000 0.844524
vt 0.780476 0.000000
vt 0.625000 0.405476
vt 0.780476 0.250000
vt 0.219524 0.250000
vt 0.375000 0.405476
vt 0.867124 0.879646
vt 0.625000 0.150900
vt 0.684795 0.150900
vt 0.699701 0.150900
vt 0.780476 0.150900
vt 0.625000 0.599100
vt 0.875000 0.150900
vt 0.125000 0.150900
vt 0.375000 0.599100
vt 0.052839 0.889360
vt 0.937746 0.889360
vt 0.151028 0.879646
vn 0.000000 0.000000 1.000000
vn 0.000000 0.000000 1.000000
vn 0.000000 0.000000 1.000000
vn 0.000000 0.000000 1.000000
vn 0.000000 1.000000 0.000000
vn 0.000000 1.000000 0.000000
vn 0.000000 1.000000 0.000000
vn 0.000000 1.000000 0.000000
vn 0.000000 0.000000 -1.000000
vn 0.000000 0.000000 -1.000000
vn 0.000000 0.000000 -1.000000
vn 0.000000 0.000000 -1.000000
vn 0.000000 -1.000000 0.000000
vn 0.000000 -1.000000 0.000000
vn 0.000000 -1.000000 0.000000
vn 0.000000 -1.000000 0.000000
vn 1.000000 0.000000 0.000000
vn 1.000000 0.000000 0.000000
vn 1.000000 0.000000 0.000000
vn 1.000000 0.000000 0.000000
vn -1.000000 -0.000000 0.000000
vn -1.000000 -0.000000 0.000000
vn -1.000000 0.000000 0.000000
vn -1.000000 0.000000 0.000000
vn 0.000000 1.000000 0.000000
vn 0.000000 1.000000 0.000000
vn 1.000000 0.000000 0.000000
vn 1.000000 0.000000 0.000000
vn 0.000000 -1.000000 0.000000
vn 0.000000 -1.000000 0.000000
vn -1.000000 0.000000 0.000000
vn -1.000000 0.000000 0.000000
vn 0.000000 -1.000000 0.000000
vn 0.000000 -1.000000 0.000000
vn 1.000000 -0.000000 0.000000
vn 1.000000 0.000000 0.000000
vn 0.000000 1.000000 0.000000
vn 0.000000 1.000000 0.000000
vn -1.000000 -0.000000 0.000000
vn -1.000000 0.000000 0.000000
vn 0.000000 -1.000000 0.000000
vn 0.000000 -1.000000 0.000000
vn 1.000000 -0.000000 0.000000
vn 1.000000 0.000000 0.000000
vn 0.000000 1.000000 0.000000
vn 0.000000 1.000000 0.000000
vn -1.000000 0.000000 0.000000
vn -1.000000 0.000000 0.000000
vn 0.000000 0.000000 1.000000
vn 0.000000 0.000000 1.000000
vn 1.000000 0.000000 0.000000
vn 1.000000 0.000000 0.000000
vn 1.000000 -0.000000 0.000000
vn 1.000000 -0.000000 0.000000
vn 1.000000 -0.000000 0.000000
vn 0.000000 0.000000 -1.000000
vn 0.000000 0.000000 -1.000000
vn -1.000000 0.000000 0.000000
vn -1.000000 0.000000 0.000000
vn -1.000000 0.000000 0.000000
vn -1.000000 0.000000 0.000000
vn -1.000000 0.000000 0.000000
s 1
g pasted__pasted__pasted__pCube1 pasted__pasted__group1 pasted__group12 group14
usemtl pasted__pasted__lambert2SG
f 129/202/237 130/203/238 112/167/239 111/166/240
s 2
f 117/179/241 118/180/242 123/190/243 124/193/244
s 3
f 113/168/245 114/169/246 134/207/247 135/210/248
s 4
f 121/187/249 122/188/250 119/182/251 120/185/252
s 5
f 118/181/253 131/204/254 132/205/255 123/191/256
s 6
f 124/192/257 137/212/258 138/213/259 117/178/260
s 2
f 111/166/261 112/167/262 118/180/242 117/179/241
s 5
f 130/203/263 131/204/254 118/181/253 112/167/264
s 4
f 120/185/252 119/182/251 110/173/265 109/172/266
s 6
f 117/178/260 138/213/259 129/202/267 111/166/268
s 4
f 125/195/269 126/196/270 122/188/250 121/187/249
s 5
f 123/191/256 132/205/255 133/206/271 127/199/272
s 2
f 124/193/244 123/190/243 127/198/273 128/201/274
s 6
f 128/200/275 136/211/276 137/212/258 124/192/257
s 4
f 115/170/277 116/171/278 126/196/270 125/195/269
s 5
f 127/199/272 133/206/271 134/208/279 114/175/280
s 2
f 128/201/274 127/198/273 114/169/281 113/168/282
s 6
f 135/209/283 136/211/276 128/200/275 113/177/284
s 1
f 109/164/285 110/165/286 130/203/238 129/202/237
s 5
f 110/165/287 119/183/288 131/204/254 130/203/263
f 132/205/255 131/204/254 119/183/288 122/189/289
f 133/206/271 132/205/255 122/189/289 126/197/290
f 134/208/279 133/206/271 126/197/290 116/174/291
s 3
f 135/210/248 134/207/247 116/171/292 115/170/293
s 6
f 115/176/294 125/194/295 136/211/276 135/209/283
usemtl lambert21SG
f 137/212/258 136/211/276 125/194/295 121/186/296
usemtl pasted__pasted__lambert2SG
f 138/213/259 137/212/258 121/186/296 120/184/297
usemtl lambert21SG
f 129/202/267 138/213/259 120/184/297 109/164/298
