# This file uses centimeters as units for non-parametric coordinates.

mtllib puertaentrada.mtl
g default
v 5.483624 5.746130 3.468143
v 5.875423 5.746130 3.468143
v 5.483624 5.746130 1.135504
v 5.875423 5.746130 1.135504
v 5.875423 4.510308 3.468143
v 5.875423 4.510308 1.135504
v 5.483624 4.510308 1.135504
v 5.483624 4.510308 3.468143
vt 0.067494 0.955177
vt 0.918886 0.955262
vt 0.625000 0.500000
vt 0.375000 0.500000
vt 0.457506 0.955177
vt 0.526696 0.955262
vt 0.067494 0.756920
vt 0.625000 0.553589
vt 0.457506 0.756920
vt 0.375000 0.553589
vt 0.526696 0.758770
vt 0.918886 0.758770
vn 0.000000 0.000000 1.000000
vn 0.000000 0.000000 1.000000
vn 0.000000 0.000000 1.000000
vn 0.000000 0.000000 1.000000
vn 0.000000 1.000000 0.000000
vn 0.000000 1.000000 0.000000
vn 0.000000 1.000000 0.000000
vn 0.000000 1.000000 0.000000
vn 0.000000 0.000000 -1.000000
vn 0.000000 0.000000 -1.000000
vn 0.000000 0.000000 -1.000000
vn 0.000000 0.000000 -1.000000
vn 1.000000 0.000001 0.000000
vn 1.000000 0.000001 0.000000
vn 1.000000 0.000000 0.000000
vn 1.000000 0.000000 0.000000
vn -1.000000 0.000000 0.000000
vn -1.000000 0.000000 0.000000
vn -1.000000 0.000000 0.000000
vn -1.000000 0.000000 0.000000
s off
g puertaentrada1:pCube1
usemtl puertaentrada1:lambert2SG
f 8/12/1 5/7/2 2/1/3 1/2/4
f 1/2/5 2/1/6 4/3/7 3/4/8
f 3/4/9 4/3/10 6/8/11 7/10/12
f 5/7/13 6/9/14 4/5/15 2/1/16
f 7/11/17 8/12/18 1/2/19 3/6/20
