# This file uses centimeters as units for non-parametric coordinates.

mtllib barra2.mtl
g default
v 2.954083 0.021297 -1.712468
v 3.195342 0.021297 -1.712468
v 2.954083 1.195154 -1.712468
v 3.195342 1.195154 -1.712468
v 2.954083 1.195154 -4.155320
v 3.195342 1.195154 -4.155320
v 2.954083 0.021297 -4.155320
v 3.195342 0.021297 -4.155320
vt 0.375000 0.000000
vt 0.714102 0.045492
vt 0.375000 0.250000
vt 0.625000 0.250000
vt 0.375000 0.500000
vt 0.625000 0.500000
vt 0.375000 0.750000
vt 0.625000 0.750000
vt 0.375000 1.000000
vt 0.625000 1.000000
vt 0.338840 0.070105
vt 0.661160 0.070105
vt 0.125000 0.000000
vt 0.125000 0.250000
vt 0.661160 0.672845
vt 0.338840 0.672845
vt 0.714102 0.045492
vt 0.714102 0.726126
vt 0.714102 0.726126
vn 0.000000 0.000000 1.000000
vn 0.000000 0.000000 1.000000
vn 0.000000 0.000000 1.000000
vn 0.000000 0.000000 1.000000
vn 0.000000 1.000000 0.000000
vn 0.000000 1.000000 0.000000
vn 0.000000 1.000000 0.000000
vn 0.000000 1.000000 0.000000
vn 0.000000 0.000000 -1.000000
vn 0.000000 0.000000 -1.000000
vn 0.000000 0.000000 -1.000000
vn 0.000000 0.000000 -1.000000
vn 0.000000 -1.000000 0.000000
vn 0.000000 -1.000000 0.000000
vn 0.000000 -1.000000 0.000000
vn 0.000000 -1.000000 0.000000
vn 1.000000 0.000000 0.000000
vn 1.000000 0.000000 0.000000
vn 1.000000 0.000000 0.000000
vn 1.000000 0.000000 0.000000
vn -1.000000 0.000000 0.000000
vn -1.000000 0.000000 0.000000
vn -1.000000 0.000000 0.000000
vn -1.000000 0.000000 0.000000
s off
g pCube2
usemtl lambert21SG
f 1/2/1 2/17/2 4/18/3 3/19/4
usemtl lambert9SG
f 3/3/5 4/4/6 6/6/7 5/5/8
f 5/5/9 6/6/10 8/8/11 7/7/12
f 7/7/13 8/8/14 2/10/15 1/9/16
usemtl lambert19SG
f 2/11/17 8/12/18 6/15/19 4/16/20
usemtl lambert9SG
f 7/13/21 1/1/22 3/3/23 5/14/24
g default
v -3.305399 1.154120 -1.444171
v 3.448639 1.154120 -1.444171
v -3.305399 1.259376 -1.444171
v 3.448639 1.259376 -1.444171
v -3.305399 1.259376 -3.161548
v 3.448639 1.259376 -3.161548
v -3.305399 1.154120 -3.161548
v 3.448639 1.154120 -3.161548
vt 0.375000 0.000000
vt 0.625000 0.000000
vt 0.375000 0.250000
vt 0.625000 0.250000
vt 0.375000 0.500000
vt 0.625000 0.500000
vt 0.375000 0.750000
vt 0.625000 0.750000
vt 0.375000 1.000000
vt 0.625000 1.000000
vt 0.875000 0.000000
vt 0.875000 0.250000
vt 0.125000 0.000000
vt 0.125000 0.250000
vn 0.000000 0.000000 1.000000
vn 0.000000 0.000000 1.000000
vn 0.000000 0.000000 1.000000
vn 0.000000 0.000000 1.000000
vn 0.000000 1.000000 0.000000
vn 0.000000 1.000000 0.000000
vn 0.000000 1.000000 0.000000
vn 0.000000 1.000000 0.000000
vn 0.000000 0.000000 -1.000000
vn 0.000000 0.000000 -1.000000
vn 0.000000 0.000000 -1.000000
vn 0.000000 0.000000 -1.000000
vn 0.000000 -1.000000 0.000000
vn 0.000000 -1.000000 0.000000
vn 0.000000 -1.000000 0.000000
vn 0.000000 -1.000000 0.000000
vn 1.000000 0.000000 0.000000
vn 1.000000 0.000000 0.000000
vn 1.000000 0.000000 0.000000
vn 1.000000 0.000000 0.000000
vn -1.000000 0.000000 0.000000
vn -1.000000 0.000000 0.000000
vn -1.000000 0.000000 0.000000
vn -1.000000 0.000000 0.000000
s off
g pCube3
usemtl lambert5SG
f 9/20/25 10/21/26 12/23/27 11/22/28
usemtl lambert3SG
f 11/22/29 12/23/30 14/25/31 13/24/32
usemtl lambert5SG
f 13/24/33 14/25/34 16/27/35 15/26/36
usemtl lambert3SG
f 15/26/37 16/27/38 10/29/39 9/28/40
usemtl lambert5SG
f 10/21/41 16/30/42 14/31/43 12/23/44
f 15/32/45 9/20/46 11/22/47 13/33/48
g default
v 2.936050 0.030116 -5.425915
v 3.186487 0.030116 -5.425915
v 2.936050 1.202024 -5.425915
v 3.186487 1.202024 -5.425915
v 2.936050 1.202024 -6.425915
v 3.186487 1.202024 -6.425915
v 2.936050 0.030116 -6.425915
v 3.186487 0.030116 -6.425915
vt 0.375000 0.000000
vt 0.663578 -0.058421
vt 0.375000 0.250000
vt 0.625000 0.250000
vt 0.375000 0.500000
vt 0.625000 0.500000
vt 0.375000 0.750000
vt 0.625000 0.750000
vt 0.375000 1.000000
vt 0.625000 1.000000
vt 0.338840 0.019474
vt 0.497583 0.019474
vt 0.125000 0.000000
vt 0.125000 0.250000
vt 0.663578 -0.058421
vt 0.375000 0.250000
vt 0.497583 0.957158
vt 0.338840 0.957158
vt 0.663578 0.941579
vt 0.663578 0.941579
vn 0.000000 0.000000 1.000000
vn 0.000000 0.000000 1.000000
vn 0.000000 0.000000 1.000000
vn 0.000000 0.000000 1.000000
vn 0.000000 1.000000 0.000000
vn 0.000000 1.000000 0.000000
vn 0.000000 1.000000 0.000000
vn 0.000000 1.000000 0.000000
vn 0.000000 0.000000 -1.000000
vn 0.000000 0.000000 -1.000000
vn 0.000000 0.000000 -1.000000
vn 0.000000 0.000000 -1.000000
vn 0.000000 -1.000000 0.000000
vn 0.000000 -1.000000 0.000000
vn 0.000000 -1.000000 0.000000
vn 0.000000 -1.000000 0.000000
vn 1.000000 0.000000 0.000000
vn 1.000000 0.000000 0.000000
vn 1.000000 0.000000 0.000000
vn 1.000000 0.000000 0.000000
vn -1.000000 0.000000 0.000000
vn -1.000000 0.000000 0.000000
vn -1.000000 0.000000 0.000000
vn -1.000000 0.000000 0.000000
s off
g pCube4
usemtl lambert20SG
f 17/35/49 18/48/50 20/52/51 19/53/52
f 19/36/53 20/37/54 22/39/55 21/38/56
f 21/38/57 22/39/58 24/41/59 23/40/60
f 23/40/61 24/41/62 18/43/63 17/42/64
f 18/44/65 24/45/66 22/50/67 20/51/68
f 23/46/69 17/34/70 19/49/71 21/47/72
g default
v 1.942438 1.146194 -3.150483
v 3.413527 1.146194 -3.150483
v 1.942438 1.267142 -3.150483
v 3.413527 1.267142 -3.150483
v 1.942438 1.267142 -6.517682
v 3.413527 1.267142 -6.517682
v 1.942438 1.146194 -6.517682
v 3.413527 1.146194 -6.517682
vt 0.375000 0.000000
vt 0.625000 0.000000
vt 0.375000 0.250000
vt 0.625000 0.250000
vt 0.375000 0.500000
vt 0.625000 0.500000
vt 0.375000 0.750000
vt 0.625000 0.750000
vt 0.375000 1.000000
vt 0.625000 1.000000
vt 0.875000 0.000000
vt 0.875000 0.250000
vt 0.125000 0.000000
vt 0.125000 0.250000
vn 0.000000 0.000000 1.000000
vn 0.000000 0.000000 1.000000
vn 0.000000 0.000000 1.000000
vn 0.000000 0.000000 1.000000
vn 0.000000 1.000000 0.000000
vn 0.000000 1.000000 0.000000
vn 0.000000 1.000000 0.000000
vn 0.000000 1.000000 0.000000
vn 0.000000 0.000000 -1.000000
vn 0.000000 0.000000 -1.000000
vn 0.000000 0.000000 -1.000000
vn 0.000000 0.000000 -1.000000
vn 0.000000 -1.000000 0.000000
vn 0.000000 -1.000000 0.000000
vn 0.000000 -1.000000 0.000000
vn 0.000000 -1.000000 0.000000
vn 1.000000 0.000000 0.000000
vn 1.000000 0.000000 0.000000
vn 1.000000 0.000000 0.000000
vn 1.000000 0.000000 0.000000
vn -1.000000 0.000000 0.000000
vn -1.000000 0.000000 0.000000
vn -1.000000 0.000000 0.000000
vn -1.000000 0.000000 0.000000
s off
g pCube5
usemtl lambert6SG
f 25/54/73 26/55/74 28/57/75 27/56/76
usemtl lambert4SG
f 27/56/77 28/57/78 30/59/79 29/58/80
usemtl lambert6SG
f 29/58/81 30/59/82 32/61/83 31/60/84
usemtl lambert4SG
f 31/60/85 32/61/86 26/63/87 25/62/88
usemtl lambert6SG
f 26/55/89 32/64/90 30/65/91 28/57/92
f 31/66/93 25/54/94 27/56/95 29/67/96
g default
v -2.950508 0.002050 -1.724106
v 2.950508 0.002050 -1.724106
v -2.950508 1.151071 -1.724106
v 2.950508 1.151071 -1.724106
v -2.950508 1.151071 -2.119798
v 2.950508 1.151071 -2.119798
v -2.950508 0.002050 -2.119798
v 2.950508 0.002050 -2.119798
vt 0.375000 0.000000
vt 0.625000 0.000000
vt 0.375000 0.250000
vt 0.625000 0.250000
vt 0.375000 0.500000
vt 0.625000 0.500000
vt 0.375000 0.750000
vt 0.625000 0.750000
vt 0.375000 1.000000
vt 0.625000 1.000000
vt 0.875000 0.000000
vt 0.875000 0.250000
vt 0.125000 0.000000
vt 0.125000 0.250000
vt 0.908388 -0.005039
vt 0.081533 -0.005039
vt 0.081533 0.793402
vt 0.908388 0.793402
vt 0.625000 0.250000
vt 0.375000 0.250000
vn 0.000000 0.000000 1.000000
vn 0.000000 0.000000 1.000000
vn 0.000000 0.000000 1.000000
vn 0.000000 0.000000 1.000000
vn 0.000000 1.000000 0.000000
vn 0.000000 1.000000 0.000000
vn 0.000000 1.000000 0.000000
vn 0.000000 1.000000 0.000000
vn 0.000000 0.000000 -1.000000
vn 0.000000 0.000000 -1.000000
vn 0.000000 0.000000 -1.000000
vn 0.000000 0.000000 -1.000000
vn 0.000000 -1.000000 0.000000
vn 0.000000 -1.000000 0.000000
vn 0.000000 -1.000000 0.000000
vn 0.000000 -1.000000 0.000000
vn 1.000000 0.000000 0.000000
vn 1.000000 0.000000 0.000000
vn 1.000000 0.000000 0.000000
vn 1.000000 0.000000 0.000000
vn -1.000000 0.000000 0.000000
vn -1.000000 0.000000 0.000000
vn -1.000000 0.000000 0.000000
vn -1.000000 0.000000 0.000000
s off
g pasted__pCube1 group
usemtl lambert16SG
f 33/82/97 34/83/98 36/84/99 35/85/100
usemtl lambert15SG
f 35/70/101 36/86/102 38/73/103 37/72/104
usemtl lambert17SG
f 37/72/105 38/73/106 40/75/107 39/74/108
f 39/74/109 40/75/110 34/77/111 33/76/112
usemtl lambert15SG
f 34/69/113 40/78/114 38/79/115 36/71/116
usemtl lambert17SG
f 39/80/117 33/68/118 35/87/119 37/81/120
