# This file uses centimeters as units for non-parametric coordinates.

mtllib barrabien1.mtl
g default
v -9.312223 -0.106599 -2.909729
v 2.926382 -0.106599 -2.909729
v -9.312223 1.511616 -2.909729
v 2.926382 1.511616 -2.909729
v -9.312223 1.511616 -3.260908
v 2.926382 1.511616 -3.260908
v -9.312223 -0.106599 -3.260908
v 2.926382 -0.106599 -3.260908
v -10.048261 1.515910 -2.661284
v 3.959497 1.515910 -2.661284
v -10.048261 1.664147 -2.661284
v 3.959497 1.664147 -2.661284
v -10.048261 1.664147 -4.185470
v 3.959497 1.664147 -4.185470
v -10.048261 1.515910 -4.185470
v 3.959497 1.515910 -4.185470
v 2.525664 1.504748 -4.130766
v 3.951790 1.504748 -4.130766
v 2.525664 1.675084 -4.130766
v 3.951790 1.675084 -4.130766
v 2.525664 1.675084 -5.099477
v 3.951790 1.675084 -5.099477
v 2.525664 1.504748 -5.099477
v 3.951790 1.504748 -5.099477
v 2.933797 -0.079493 -2.899402
v 3.434165 -0.079493 -2.899402
v 2.933797 1.573700 -2.899402
v 3.434165 1.573700 -2.899402
v 2.933797 1.573700 -5.067450
v 3.434165 1.573700 -5.067450
v 2.933797 -0.079493 -5.067450
v 3.434165 -0.079493 -5.067450
v 2.525664 1.504748 -6.176878
v 3.951790 1.504748 -6.176878
v 2.525664 1.675084 -6.176878
v 3.951790 1.675084 -6.176878
v 2.525664 1.675084 -7.257491
v 3.951790 1.675084 -7.257491
v 2.525664 1.504748 -7.257491
v 3.951790 1.504748 -7.257491
v 2.896397 -0.067072 -6.195113
v 3.415800 -0.067072 -6.195113
v 2.896397 1.583376 -6.195113
v 3.415800 1.583376 -6.195113
v 2.896397 1.583376 -7.082620
v 3.415800 1.583376 -7.082620
v 2.896397 -0.067072 -7.082620
v 3.415800 -0.067072 -7.082620
vt 0.908388 -0.005039
vt 0.081533 -0.005039
vt 0.081533 0.793402
vt 0.908388 0.793402
vt 0.375000 0.250000
vt 0.625000 0.250000
vt 0.625000 0.500000
vt 0.375000 0.500000
vt 0.625000 0.750000
vt 0.375000 0.750000
vt 0.625000 1.000000
vt 0.375000 1.000000
vt 0.625000 0.000000
vt 0.875000 0.000000
vt 0.875000 0.250000
vt 0.625000 0.250000
vt 0.125000 0.000000
vt 0.375000 0.000000
vt 0.375000 0.250000
vt 0.125000 0.250000
vt 0.375000 0.000000
vt 0.625000 0.000000
vt 0.625000 0.250000
vt 0.375000 0.250000
vt 0.625000 0.500000
vt 0.375000 0.500000
vt 0.625000 0.750000
vt 0.375000 0.750000
vt 0.625000 1.000000
vt 0.375000 1.000000
vt 0.875000 0.000000
vt 0.875000 0.250000
vt 0.125000 0.000000
vt 0.125000 0.250000
vt 0.375000 0.000000
vt 0.625000 0.000000
vt 0.625000 0.250000
vt 0.375000 0.250000
vt 0.625000 0.500000
vt 0.375000 0.500000
vt 0.625000 0.750000
vt 0.375000 0.750000
vt 0.625000 1.000000
vt 0.375000 1.000000
vt 0.875000 0.000000
vt 0.875000 0.250000
vt 0.125000 0.000000
vt 0.125000 0.250000
vt 0.714102 0.045492
vt 0.714102 0.045492
vt 0.714102 0.726126
vt 0.714102 0.726126
vt 0.375000 0.250000
vt 0.625000 0.250000
vt 0.625000 0.500000
vt 0.375000 0.500000
vt 0.625000 0.750000
vt 0.375000 0.750000
vt 0.625000 1.000000
vt 0.375000 1.000000
vt 0.338840 0.070105
vt 0.661160 0.070105
vt 0.661160 0.672845
vt 0.338840 0.672845
vt 0.125000 0.000000
vt 0.375000 0.000000
vt 0.125000 0.250000
vt 0.375000 0.000000
vt 0.625000 0.000000
vt 0.625000 0.250000
vt 0.375000 0.250000
vt 0.625000 0.500000
vt 0.375000 0.500000
vt 0.625000 0.750000
vt 0.375000 0.750000
vt 0.625000 1.000000
vt 0.375000 1.000000
vt 0.875000 0.000000
vt 0.875000 0.250000
vt 0.125000 0.000000
vt 0.125000 0.250000
vt 0.663578 -0.058421
vt 0.663578 -0.058421
vt 0.663578 0.941579
vt 0.663578 0.941579
vt 0.375000 0.250000
vt 0.625000 0.250000
vt 0.625000 0.500000
vt 0.375000 0.500000
vt 0.625000 0.750000
vt 0.375000 0.750000
vt 0.625000 1.000000
vt 0.375000 1.000000
vt 0.338840 0.019474
vt 0.497583 0.019474
vt 0.497583 0.957158
vt 0.338840 0.957158
vt 0.125000 0.000000
vt 0.375000 0.000000
vt 0.375000 0.250000
vt 0.125000 0.250000
vn 0.000000 0.000000 1.000000
vn 0.000000 0.000000 1.000000
vn 0.000000 0.000000 1.000000
vn 0.000000 0.000000 1.000000
vn 0.000000 1.000000 0.000000
vn 0.000000 1.000000 0.000000
vn 0.000000 1.000000 0.000000
vn 0.000000 1.000000 0.000000
vn 0.000000 0.000000 -1.000000
vn 0.000000 0.000000 -1.000000
vn 0.000000 0.000000 -1.000000
vn 0.000000 0.000000 -1.000000
vn 0.000000 -1.000000 0.000000
vn 0.000000 -1.000000 0.000000
vn 0.000000 -1.000000 0.000000
vn 0.000000 -1.000000 0.000000
vn 1.000000 0.000000 0.000000
vn 1.000000 0.000000 0.000000
vn 1.000000 0.000000 0.000000
vn 1.000000 0.000000 0.000000
vn -1.000000 0.000000 0.000000
vn -1.000000 0.000000 0.000000
vn -1.000000 0.000000 0.000000
vn -1.000000 0.000000 0.000000
vn 0.000000 0.000000 1.000000
vn 0.000000 0.000000 1.000000
vn 0.000000 0.000000 1.000000
vn 0.000000 0.000000 1.000000
vn 0.000000 1.000000 0.000000
vn 0.000000 1.000000 0.000000
vn 0.000000 1.000000 0.000000
vn 0.000000 1.000000 0.000000
vn 0.000000 0.000000 -1.000000
vn 0.000000 0.000000 -1.000000
vn 0.000000 0.000000 -1.000000
vn 0.000000 0.000000 -1.000000
vn 0.000000 -1.000000 0.000000
vn 0.000000 -1.000000 0.000000
vn 0.000000 -1.000000 0.000000
vn 0.000000 -1.000000 0.000000
vn 1.000000 0.000000 0.000000
vn 1.000000 0.000000 0.000000
vn 1.000000 0.000000 0.000000
vn 1.000000 0.000000 0.000000
vn -1.000000 0.000000 0.000000
vn -1.000000 0.000000 0.000000
vn -1.000000 0.000000 0.000000
vn -1.000000 0.000000 0.000000
vn 0.000000 0.000000 1.000000
vn 0.000000 0.000000 1.000000
vn 0.000000 0.000000 1.000000
vn 0.000000 0.000000 1.000000
vn 0.000000 1.000000 0.000000
vn 0.000000 1.000000 0.000000
vn 0.000000 1.000000 0.000000
vn 0.000000 1.000000 0.000000
vn 0.000000 0.000000 -1.000000
vn 0.000000 0.000000 -1.000000
vn 0.000000 0.000000 -1.000000
vn 0.000000 0.000000 -1.000000
vn 0.000000 -1.000000 0.000000
vn 0.000000 -1.000000 0.000000
vn 0.000000 -1.000000 0.000000
vn 0.000000 -1.000000 0.000000
vn 1.000000 0.000000 0.000000
vn 1.000000 0.000000 0.000000
vn 1.000000 0.000000 0.000000
vn 1.000000 0.000000 0.000000
vn -1.000000 0.000000 0.000000
vn -1.000000 0.000000 0.000000
vn -1.000000 0.000000 0.000000
vn -1.000000 0.000000 0.000000
vn 0.000000 0.000000 1.000000
vn 0.000000 0.000000 1.000000
vn 0.000000 0.000000 1.000000
vn 0.000000 0.000000 1.000000
vn 0.000000 1.000000 0.000000
vn 0.000000 1.000000 0.000000
vn 0.000000 1.000000 0.000000
vn 0.000000 1.000000 0.000000
vn 0.000000 0.000000 -1.000000
vn 0.000000 0.000000 -1.000000
vn 0.000000 0.000000 -1.000000
vn 0.000000 0.000000 -1.000000
vn 0.000000 -1.000000 0.000000
vn 0.000000 -1.000000 0.000000
vn 0.000000 -1.000000 0.000000
vn 0.000000 -1.000000 0.000000
vn 1.000000 0.000000 0.000000
vn 1.000000 0.000000 0.000000
vn 1.000000 0.000000 0.000000
vn 1.000000 0.000000 0.000000
vn -1.000000 0.000000 0.000000
vn -1.000000 0.000000 0.000000
vn -1.000000 0.000000 0.000000
vn -1.000000 0.000000 0.000000
vn 0.000000 0.000000 1.000000
vn 0.000000 0.000000 1.000000
vn 0.000000 0.000000 1.000000
vn 0.000000 0.000000 1.000000
vn 0.000000 1.000000 0.000000
vn 0.000000 1.000000 0.000000
vn 0.000000 1.000000 0.000000
vn 0.000000 1.000000 0.000000
vn 0.000000 0.000000 -1.000000
vn 0.000000 0.000000 -1.000000
vn 0.000000 0.000000 -1.000000
vn 0.000000 0.000000 -1.000000
vn 0.000000 -1.000000 0.000000
vn 0.000000 -1.000000 0.000000
vn 0.000000 -1.000000 0.000000
vn 0.000000 -1.000000 0.000000
vn 1.000000 0.000000 0.000000
vn 1.000000 0.000000 0.000000
vn 1.000000 0.000000 0.000000
vn 1.000000 0.000000 0.000000
vn -1.000000 0.000000 0.000000
vn -1.000000 0.000000 0.000000
vn -1.000000 0.000000 0.000000
vn -1.000000 0.000000 0.000000
vn 0.000000 0.000000 1.000000
vn 0.000000 0.000000 1.000000
vn 0.000000 0.000000 1.000000
vn 0.000000 0.000000 1.000000
vn 0.000000 1.000000 0.000000
vn 0.000000 1.000000 0.000000
vn 0.000000 1.000000 0.000000
vn 0.000000 1.000000 0.000000
vn 0.000000 0.000000 -1.000000
vn 0.000000 0.000000 -1.000000
vn 0.000000 0.000000 -1.000000
vn 0.000000 0.000000 -1.000000
vn 0.000000 -1.000000 0.000000
vn 0.000000 -1.000000 0.000000
vn 0.000000 -1.000000 0.000000
vn 0.000000 -1.000000 0.000000
vn 1.000000 0.000000 0.000000
vn 1.000000 0.000000 0.000000
vn 1.000000 0.000000 0.000000
vn 1.000000 0.000000 0.000000
vn -1.000000 0.000000 0.000000
vn -1.000000 0.000000 0.000000
vn -1.000000 0.000000 0.000000
vn -1.000000 0.000000 0.000000
s off
g polySurface7
usemtl barrabien:lambert16SG
f 1/1/1 2/2/2 4/3/3 3/4/4
usemtl barrabien:lambert15SG
f 3/5/5 4/6/6 6/7/7 5/8/8
usemtl barrabien:lambert17SG
f 5/8/9 6/7/10 8/9/11 7/10/12
f 7/10/13 8/9/14 2/11/15 1/12/16
usemtl barrabien:lambert15SG
f 2/13/17 8/14/18 6/15/19 4/16/20
usemtl barrabien:lambert17SG
f 7/17/21 1/18/22 3/19/23 5/20/24
usemtl barrabien:lambert5SG
f 9/21/25 10/22/26 12/23/27 11/24/28
usemtl barrabien:lambert3SG
f 11/24/29 12/23/30 14/25/31 13/26/32
usemtl barrabien:lambert5SG
f 13/26/33 14/25/34 16/27/35 15/28/36
usemtl barrabien:lambert3SG
f 15/28/37 16/27/38 10/29/39 9/30/40
usemtl barrabien:lambert5SG
f 10/22/41 16/31/42 14/32/43 12/23/44
f 15/33/45 9/21/46 11/24/47 13/34/48
usemtl barrabien:lambert6SG4
f 17/35/49 18/36/50 20/37/51 19/38/52
usemtl barrabien:lambert4SG4
f 19/38/53 20/37/54 22/39/55 21/40/56
usemtl barrabien:lambert6SG4
f 21/40/57 22/39/58 24/41/59 23/42/60
usemtl barrabien:lambert4SG4
f 23/42/61 24/41/62 18/43/63 17/44/64
usemtl barrabien:lambert6SG4
f 18/36/65 24/45/66 22/46/67 20/37/68
f 23/47/69 17/35/70 19/38/71 21/48/72
usemtl barrabien:lambert21SG
f 25/49/73 26/50/74 28/51/75 27/52/76
usemtl barrabien:lambert9SG
f 27/53/77 28/54/78 30/55/79 29/56/80
f 29/56/81 30/55/82 32/57/83 31/58/84
f 31/58/85 32/57/86 26/59/87 25/60/88
usemtl barrabien:lambert19SG
f 26/61/89 32/62/90 30/63/91 28/64/92
usemtl barrabien:lambert9SG
f 31/65/93 25/66/94 27/53/95 29/67/96
usemtl barrabien:lambert6SG
f 33/68/97 34/69/98 36/70/99 35/71/100
usemtl barrabien:lambert4SG
f 35/71/101 36/70/102 38/72/103 37/73/104
usemtl barrabien:lambert6SG
f 37/73/105 38/72/106 40/74/107 39/75/108
usemtl barrabien:lambert4SG
f 39/75/109 40/74/110 34/76/111 33/77/112
usemtl barrabien:lambert6SG
f 34/69/113 40/78/114 38/79/115 36/70/116
f 39/80/117 33/68/118 35/71/119 37/81/120
usemtl barrabien:lambert20SG
f 41/82/121 42/83/122 44/84/123 43/85/124
f 43/86/125 44/87/126 46/88/127 45/89/128
f 45/89/129 46/88/130 48/90/131 47/91/132
f 47/91/133 48/90/134 42/92/135 41/93/136
f 42/94/137 48/95/138 46/96/139 44/97/140
f 47/98/141 41/99/142 43/100/143 45/101/144
g default
v 2.525664 1.504748 -5.076843
v 3.951790 1.504748 -5.076843
v 2.525664 1.675084 -5.076843
v 3.951790 1.675084 -5.076843
v 2.525664 1.675084 -6.193866
v 3.951790 1.675084 -6.193866
v 2.525664 1.504748 -6.193866
v 3.951790 1.504748 -6.193866
vt 0.375000 0.000000
vt 0.625000 0.000000
vt 0.625000 0.250000
vt 0.375000 0.250000
vt 0.625000 0.500000
vt 0.375000 0.500000
vt 0.625000 0.750000
vt 0.375000 0.750000
vt 0.625000 1.000000
vt 0.375000 1.000000
vt 0.875000 0.000000
vt 0.875000 0.250000
vt 0.125000 0.000000
vt 0.125000 0.250000
vn 0.000000 0.000000 1.000000
vn 0.000000 0.000000 1.000000
vn 0.000000 0.000000 1.000000
vn 0.000000 0.000000 1.000000
vn 0.000000 1.000000 0.000000
vn 0.000000 1.000000 0.000000
vn 0.000000 1.000000 0.000000
vn 0.000000 1.000000 0.000000
vn 0.000000 0.000000 -1.000000
vn 0.000000 0.000000 -1.000000
vn 0.000000 0.000000 -1.000000
vn 0.000000 0.000000 -1.000000
vn 0.000000 -1.000000 0.000000
vn 0.000000 -1.000000 0.000000
vn 0.000000 -1.000000 0.000000
vn 0.000000 -1.000000 0.000000
vn 1.000000 0.000000 0.000000
vn 1.000000 0.000000 0.000000
vn 1.000000 0.000000 0.000000
vn 1.000000 0.000000 0.000000
vn -1.000000 0.000000 0.000000
vn -1.000000 0.000000 0.000000
vn -1.000000 0.000000 0.000000
vn -1.000000 0.000000 0.000000
s off
g polySurface2 barrabien:polySurface1
usemtl barrabien:lambert6SG2
f 49/102/145 50/103/146 52/104/147 51/105/148
usemtl barrabien:lambert4SG2
f 51/105/149 52/104/150 54/106/151 53/107/152
usemtl barrabien:lambert6SG2
f 53/107/153 54/106/154 56/108/155 55/109/156
usemtl barrabien:lambert4SG2
f 55/109/157 56/108/158 50/110/159 49/111/160
usemtl barrabien:lambert6SG2
f 50/103/161 56/112/162 54/113/163 52/104/164
f 55/114/165 49/102/166 51/105/167 53/115/168
